<svg xmlns="http://www.w3.org/2000/svg" viewBox="0 0 760 240" role="img" aria-label="Lossy vs lossless compression comparison: lossy removes data permanently for smaller files, lossless compresses without any quality loss">
  <rect width="760" height="240" rx="16" fill="#f8fafc"/>
  <rect x="1" y="1" width="758" height="238" rx="15" fill="none" stroke="#e2e8f0" stroke-width="1.5"/>

  <!-- Title -->
  <text x="380" y="30" text-anchor="middle" font-family="system-ui,-apple-system,sans-serif" font-size="13" font-weight="700" fill="#0f172a">Lossy vs lossless compression — what's actually different</text>

  <!-- Divider -->
  <line x1="380" y1="44" x2="380" y2="210" stroke="#e2e8f0" stroke-width="1.5" stroke-dasharray="5 3"/>

  <!-- ── LEFT: Lossy ── -->
  <text x="190" y="58" text-anchor="middle" font-family="system-ui,-apple-system,sans-serif" font-size="14" font-weight="700" fill="#dc2626">Lossy</text>
  <text x="190" y="73" text-anchor="middle" font-family="system-ui,-apple-system,sans-serif" font-size="10" fill="#64748b">JPEG · WebP (lossy) · AVIF</text>

  <!-- "Original" pixel grid — clean -->
  <rect x="50" y="84" width="100" height="100" rx="6" fill="white" stroke="#e2e8f0" stroke-width="1.5"/>
  <!-- Pixel blocks - varied colors representing a photo -->
  <rect x="52" y="86" width="12" height="12" rx="1" fill="#60a5fa"/>
  <rect x="65" y="86" width="12" height="12" rx="1" fill="#3b82f6"/>
  <rect x="78" y="86" width="12" height="12" rx="1" fill="#93c5fd"/>
  <rect x="91" y="86" width="12" height="12" rx="1" fill="#60a5fa"/>
  <rect x="104" y="86" width="12" height="12" rx="1" fill="#3b82f6"/>
  <rect x="117" y="86" width="12" height="12" rx="1" fill="#60a5fa"/>
  <rect x="130" y="86" width="12" height="12" rx="1" fill="#93c5fd"/>
  <rect x="52" y="99" width="12" height="12" rx="1" fill="#34d399"/>
  <rect x="65" y="99" width="12" height="12" rx="1" fill="#6ee7b7"/>
  <rect x="78" y="99" width="12" height="12" rx="1" fill="#34d399"/>
  <rect x="91" y="99" width="12" height="12" rx="1" fill="#10b981"/>
  <rect x="104" y="99" width="12" height="12" rx="1" fill="#34d399"/>
  <rect x="117" y="99" width="12" height="12" rx="1" fill="#6ee7b7"/>
  <rect x="130" y="99" width="12" height="12" rx="1" fill="#34d399"/>
  <rect x="52" y="112" width="12" height="12" rx="1" fill="#fbbf24"/>
  <rect x="65" y="112" width="12" height="12" rx="1" fill="#f59e0b"/>
  <rect x="78" y="112" width="12" height="12" rx="1" fill="#fbbf24"/>
  <rect x="91" y="112" width="12" height="12" rx="1" fill="#fcd34d"/>
  <rect x="104" y="112" width="12" height="12" rx="1" fill="#f59e0b"/>
  <rect x="117" y="112" width="12" height="12" rx="1" fill="#fbbf24"/>
  <rect x="130" y="112" width="12" height="12" rx="1" fill="#fcd34d"/>
  <rect x="52" y="125" width="50" height="12" rx="1" fill="#a78bfa"/>
  <rect x="104" y="125" width="38" height="12" rx="1" fill="#8b5cf6"/>
  <rect x="52" y="138" width="90" height="12" rx="1" fill="#c4b5fd"/>
  <rect x="144" y="138" width="6" height="12" rx="1" fill="#a78bfa"/>
  <rect x="52" y="151" width="50" height="12" rx="1" fill="#f9a8d4"/>
  <rect x="104" y="151" width="46" height="12" rx="1" fill="#fbcfe8"/>
  <rect x="52" y="164" width="96" height="12" rx="1" fill="#f472b6"/>
  <text x="100" y="198" text-anchor="middle" font-family="system-ui,-apple-system,sans-serif" font-size="9" fill="#94a3b8">Original</text>

  <!-- Arrow → -->
  <line x1="160" y1="134" x2="190" y2="134" stroke="#dc2626" stroke-width="2"/>
  <path d="M187 129 L194 134 L187 139" fill="none" stroke="#dc2626" stroke-width="2" stroke-linejoin="round"/>
  <!-- Compression label -->
  <text x="175" y="124" text-anchor="middle" font-family="system-ui,-apple-system,sans-serif" font-size="9" fill="#dc2626">data</text>
  <text x="175" y="134" text-anchor="middle" font-family="system-ui,-apple-system,sans-serif" font-size="9" fill="#dc2626">removed</text>
  <text x="175" y="144" text-anchor="middle" font-family="system-ui,-apple-system,sans-serif" font-size="9" fill="#dc2626">forever</text>

  <!-- Lossy "compressed" grid — blockier, color averaging -->
  <rect x="196" y="84" width="100" height="100" rx="6" fill="white" stroke="#fca5a5" stroke-width="1.5"/>
  <!-- 4x4 blocks instead of 7x7 — simulating DCT blocking artifacts -->
  <rect x="198" y="86" width="24" height="24" rx="1" fill="#6daaf5"/>
  <rect x="223" y="86" width="24" height="24" rx="1" fill="#85baf7"/>
  <rect x="248" y="86" width="24" height="24" rx="1" fill="#79b4f8"/>
  <rect x="273" y="86" width="22" height="24" rx="1" fill="#6daaf5"/>
  <rect x="198" y="111" width="24" height="24" rx="1" fill="#48cfa0"/>
  <rect x="223" y="111" width="24" height="24" rx="1" fill="#52d4a8"/>
  <rect x="248" y="111" width="24" height="24" rx="1" fill="#45cc9c"/>
  <rect x="273" y="111" width="22" height="24" rx="1" fill="#4ed1a4"/>
  <rect x="198" y="136" width="24" height="24" rx="1" fill="#f5c842"/>
  <rect x="223" y="136" width="24" height="24" rx="1" fill="#f3c23c"/>
  <rect x="248" y="136" width="24" height="24" rx="1" fill="#f6cc48"/>
  <rect x="273" y="136" width="22" height="24" rx="1" fill="#f4c540"/>
  <rect x="198" y="161" width="48" height="23" rx="1" fill="#a590f8"/>
  <rect x="247" y="161" width="48" height="23" rx="1" fill="#9e86f6"/>
  <!-- Artifact indicators -->
  <rect x="220" y="108" width="4" height="4" fill="#dc2626" opacity="0.4"/>
  <rect x="244" y="132" width="4" height="4" fill="#dc2626" opacity="0.4"/>
  <rect x="268" y="158" width="4" height="4" fill="#dc2626" opacity="0.4"/>
  <text x="246" y="198" text-anchor="middle" font-family="system-ui,-apple-system,sans-serif" font-size="9" fill="#94a3b8">After (blocks visible)</text>

  <!-- File size badge -->
  <rect x="110" y="205" width="126" height="22" rx="6" fill="#fef2f2" stroke="#fca5a5" stroke-width="1"/>
  <text x="173" y="220" text-anchor="middle" font-family="system-ui,-apple-system,sans-serif" font-size="11" font-weight="700" fill="#dc2626">↓ 60–80% smaller</text>

  <!-- ── RIGHT: Lossless ── -->
  <text x="570" y="58" text-anchor="middle" font-family="system-ui,-apple-system,sans-serif" font-size="14" font-weight="700" fill="#059669">Lossless</text>
  <text x="570" y="73" text-anchor="middle" font-family="system-ui,-apple-system,sans-serif" font-size="10" fill="#64748b">PNG · WebP (lossless) · GIF</text>

  <!-- Original pixel grid -->
  <rect x="420" y="84" width="100" height="100" rx="6" fill="white" stroke="#e2e8f0" stroke-width="1.5"/>
  <rect x="422" y="86" width="12" height="12" rx="1" fill="#60a5fa"/>
  <rect x="435" y="86" width="12" height="12" rx="1" fill="#3b82f6"/>
  <rect x="448" y="86" width="12" height="12" rx="1" fill="#93c5fd"/>
  <rect x="461" y="86" width="12" height="12" rx="1" fill="#60a5fa"/>
  <rect x="474" y="86" width="12" height="12" rx="1" fill="#3b82f6"/>
  <rect x="487" y="86" width="12" height="12" rx="1" fill="#60a5fa"/>
  <rect x="500" y="86" width="12" height="12" rx="1" fill="#93c5fd"/>
  <rect x="422" y="99" width="12" height="12" rx="1" fill="#34d399"/>
  <rect x="435" y="99" width="12" height="12" rx="1" fill="#6ee7b7"/>
  <rect x="448" y="99" width="12" height="12" rx="1" fill="#34d399"/>
  <rect x="461" y="99" width="12" height="12" rx="1" fill="#10b981"/>
  <rect x="474" y="99" width="12" height="12" rx="1" fill="#34d399"/>
  <rect x="487" y="99" width="12" height="12" rx="1" fill="#6ee7b7"/>
  <rect x="500" y="99" width="12" height="12" rx="1" fill="#34d399"/>
  <rect x="422" y="112" width="12" height="12" rx="1" fill="#fbbf24"/>
  <rect x="435" y="112" width="12" height="12" rx="1" fill="#f59e0b"/>
  <rect x="448" y="112" width="12" height="12" rx="1" fill="#fbbf24"/>
  <rect x="461" y="112" width="12" height="12" rx="1" fill="#fcd34d"/>
  <rect x="474" y="112" width="12" height="12" rx="1" fill="#f59e0b"/>
  <rect x="487" y="112" width="12" height="12" rx="1" fill="#fbbf24"/>
  <rect x="500" y="112" width="12" height="12" rx="1" fill="#fcd34d"/>
  <rect x="422" y="125" width="50" height="12" rx="1" fill="#a78bfa"/>
  <rect x="474" y="125" width="38" height="12" rx="1" fill="#8b5cf6"/>
  <rect x="422" y="138" width="90" height="12" rx="1" fill="#c4b5fd"/>
  <rect x="514" y="138" width="6" height="12" rx="1" fill="#a78bfa"/>
  <rect x="422" y="151" width="50" height="12" rx="1" fill="#f9a8d4"/>
  <rect x="474" y="151" width="46" height="12" rx="1" fill="#fbcfe8"/>
  <rect x="422" y="164" width="96" height="12" rx="1" fill="#f472b6"/>
  <text x="470" y="198" text-anchor="middle" font-family="system-ui,-apple-system,sans-serif" font-size="9" fill="#94a3b8">Original</text>

  <!-- Arrow → -->
  <line x1="530" y1="134" x2="560" y2="134" stroke="#059669" stroke-width="2"/>
  <path d="M557 129 L564 134 L557 139" fill="none" stroke="#059669" stroke-width="2" stroke-linejoin="round"/>
  <text x="545" y="124" text-anchor="middle" font-family="system-ui,-apple-system,sans-serif" font-size="9" fill="#059669">pattern</text>
  <text x="545" y="134" text-anchor="middle" font-family="system-ui,-apple-system,sans-serif" font-size="9" fill="#059669">encoded</text>
  <text x="545" y="144" text-anchor="middle" font-family="system-ui,-apple-system,sans-serif" font-size="9" fill="#059669">losslessly</text>

  <!-- Lossless result — identical pixel grid -->
  <rect x="566" y="84" width="100" height="100" rx="6" fill="white" stroke="#86efac" stroke-width="1.5"/>
  <rect x="568" y="86" width="12" height="12" rx="1" fill="#60a5fa"/>
  <rect x="581" y="86" width="12" height="12" rx="1" fill="#3b82f6"/>
  <rect x="594" y="86" width="12" height="12" rx="1" fill="#93c5fd"/>
  <rect x="607" y="86" width="12" height="12" rx="1" fill="#60a5fa"/>
  <rect x="620" y="86" width="12" height="12" rx="1" fill="#3b82f6"/>
  <rect x="633" y="86" width="12" height="12" rx="1" fill="#60a5fa"/>
  <rect x="646" y="86" width="12" height="12" rx="1" fill="#93c5fd"/>
  <rect x="568" y="99" width="12" height="12" rx="1" fill="#34d399"/>
  <rect x="581" y="99" width="12" height="12" rx="1" fill="#6ee7b7"/>
  <rect x="594" y="99" width="12" height="12" rx="1" fill="#34d399"/>
  <rect x="607" y="99" width="12" height="12" rx="1" fill="#10b981"/>
  <rect x="620" y="99" width="12" height="12" rx="1" fill="#34d399"/>
  <rect x="633" y="99" width="12" height="12" rx="1" fill="#6ee7b7"/>
  <rect x="646" y="99" width="12" height="12" rx="1" fill="#34d399"/>
  <rect x="568" y="112" width="12" height="12" rx="1" fill="#fbbf24"/>
  <rect x="581" y="112" width="12" height="12" rx="1" fill="#f59e0b"/>
  <rect x="594" y="112" width="12" height="12" rx="1" fill="#fbbf24"/>
  <rect x="607" y="112" width="12" height="12" rx="1" fill="#fcd34d"/>
  <rect x="620" y="112" width="12" height="12" rx="1" fill="#f59e0b"/>
  <rect x="633" y="112" width="12" height="12" rx="1" fill="#fbbf24"/>
  <rect x="646" y="112" width="12" height="12" rx="1" fill="#fcd34d"/>
  <rect x="568" y="125" width="50" height="12" rx="1" fill="#a78bfa"/>
  <rect x="620" y="125" width="38" height="12" rx="1" fill="#8b5cf6"/>
  <rect x="568" y="138" width="90" height="12" rx="1" fill="#c4b5fd"/>
  <rect x="660" y="138" width="6" height="12" rx="1" fill="#a78bfa"/>
  <rect x="568" y="151" width="50" height="12" rx="1" fill="#f9a8d4"/>
  <rect x="620" y="151" width="46" height="12" rx="1" fill="#fbcfe8"/>
  <rect x="568" y="164" width="96" height="12" rx="1" fill="#f472b6"/>
  <!-- Checkmark -->
  <circle cx="616" cy="91" r="9" fill="#059669"/>
  <path d="M610 91 L614 96 L622 84" fill="none" stroke="white" stroke-width="2" stroke-linecap="round" stroke-linejoin="round"/>
  <text x="616" y="198" text-anchor="middle" font-family="system-ui,-apple-system,sans-serif" font-size="9" fill="#94a3b8">After (pixel-perfect)</text>

  <!-- File size badge -->
  <rect x="482" y="205" width="126" height="22" rx="6" fill="#f0fdf4" stroke="#86efac" stroke-width="1"/>
  <text x="545" y="220" text-anchor="middle" font-family="system-ui,-apple-system,sans-serif" font-size="11" font-weight="700" fill="#059669">↓ 10–30% smaller</text>

  <!-- Bottom note -->
  <text x="380" y="235" text-anchor="middle" font-family="system-ui,-apple-system,sans-serif" font-size="10" fill="#94a3b8">Use lossy for photos · use lossless for logos, screenshots, and images with text · imagepdf.tools</text>
</svg>
